HIERARCHY
ROOT Hips
{
	OFFSET -14.64140 90.27770 -84.91600
	CHANNELS 6 Xposition Yposition Zposition Zrotation Xrotation Yrotation
	JOINT Spine
	{
		OFFSET 0.00000 13.20850 -1.60436
		CHANNELS 3 Zrotation Xrotation Yrotation
		JOINT Spine1
		{
			OFFSET 0.00000 8.61716 0.00000
			CHANNELS 3 Zrotation Xrotation Yrotation
			JOINT Spine2
			{
				OFFSET 0.00000 8.61717 0.00000
				CHANNELS 3 Zrotation Xrotation Yrotation
				JOINT Spine3
				{
					OFFSET 0.00000 8.61717 0.00000
					CHANNELS 3 Zrotation Xrotation Yrotation
					JOINT Neck
					{
						OFFSET 0.00000 11.07920 1.10792
						CHANNELS 3 Zrotation Xrotation Yrotation
						JOINT Neck1
						{
							OFFSET 0.00000 7.08032 0.00000
							CHANNELS 3 Zrotation Xrotation Yrotation
							JOINT Head
							{
								OFFSET 0.00000 7.08031 0.00000
								CHANNELS 3 Zrotation Xrotation Yrotation
								End site
								{
									OFFSET 0.00000 0.00000 0.00000
								}
							}
						}
					}
					JOINT RightShoulder
					{
						OFFSET -0.01000 7.91373 5.19711
						CHANNELS 3 Zrotation Xrotation Yrotation
						JOINT RightArm
						{
							OFFSET -18.41580 0.00000 0.00000
							CHANNELS 3 Zrotation Xrotation Yrotation
							JOINT RightForeArm
							{
								OFFSET -29.11090 0.00000 0.00000
								CHANNELS 3 Zrotation Xrotation Yrotation
								JOINT RightHand
								{
									OFFSET -24.65040 0.00000 0.00000
									CHANNELS 3 Zrotation Xrotation Yrotation
									JOINT RightHandThumb1
									{
										OFFSET -5.35114 -0.85590 3.97906
										CHANNELS 3 Zrotation Xrotation Yrotation
										JOINT RightHandThumb2
										{
											OFFSET -4.52789 0.00000 0.00000
											CHANNELS 3 Zrotation Xrotation Yrotation
											JOINT RightHandThumb3
											{
												OFFSET -2.46976 0.00000 0.00000
												CHANNELS 3 Zrotation Xrotation Yrotation
												End site
												{
													OFFSET 0.00000 0.00000 0.00000
												}
											}
										}
									}
									JOINT RightHandIndex1
									{
										OFFSET -14.26970 0.00000 2.88139
										CHANNELS 3 Zrotation Xrotation Yrotation
										JOINT RightHandIndex2
										{
											OFFSET -5.48836 0.00000 0.00000
											CHANNELS 3 Zrotation Xrotation Yrotation
											JOINT RightHandIndex3
											{
												OFFSET -3.01859 0.00000 0.00000
												CHANNELS 3 Zrotation Xrotation Yrotation
												End site
												{
													OFFSET 0.00000 0.00000 0.00000
												}
											}
										}
									}
									JOINT RightHandMiddle1
									{
										OFFSET -14.26970 0.00000 -0.09147
										CHANNELS 3 Zrotation Xrotation Yrotation
										JOINT RightHandMiddle2
										{
											OFFSET -6.17441 0.00000 0.00000
											CHANNELS 3 Zrotation Xrotation Yrotation
											JOINT RightHandMiddle3
											{
												OFFSET -3.56743 0.00000 0.00000
												CHANNELS 3 Zrotation Xrotation Yrotation
												End site
												{
													OFFSET 0.00000 0.00000 0.00000
												}
											}
										}
									}
									JOINT RightHandRing1
									{
										OFFSET -12.69180 0.00000 -3.06433
										CHANNELS 3 Zrotation Xrotation Yrotation
										JOINT RightHandRing2
										{
											OFFSET -5.62556 0.00000 0.00000
											CHANNELS 3 Zrotation Xrotation Yrotation
											JOINT RightHandRing3
											{
												OFFSET -3.56744 0.00000 0.00000
												CHANNELS 3 Zrotation Xrotation Yrotation
												End site
												{
													OFFSET 0.00000 0.00000 0.00000
												}
											}
										}
									}
									JOINT RightHandPinky1
									{
										OFFSET -11.11390 0.00000 -6.03719
										CHANNELS 3 Zrotation Xrotation Yrotation
										JOINT RightHandPinky2
										{
											OFFSET -4.52789 0.00000 0.00000
											CHANNELS 3 Zrotation Xrotation Yrotation
											JOINT RightHandPinky3
											{
												OFFSET -2.46976 0.00000 0.00000
												CHANNELS 3 Zrotation Xrotation Yrotation
												End site
												{
													OFFSET 0.00000 0.00000 0.00000
												}
											}
										}
									}
								}
							}
						}
					}
					JOINT LeftShoulder
					{
						OFFSET 0.01000 7.91373 5.19711
						CHANNELS 3 Zrotation Xrotation Yrotation
						JOINT LeftArm
						{
							OFFSET 18.41580 0.00000 0.00000
							CHANNELS 3 Zrotation Xrotation Yrotation
							JOINT LeftForeArm
							{
								OFFSET 29.11090 0.00000 0.00000
								CHANNELS 3 Zrotation Xrotation Yrotation
								JOINT LeftHand
								{
									OFFSET 24.65040 0.00000 0.00000
									CHANNELS 3 Zrotation Xrotation Yrotation
									JOINT LeftHandThumb1
									{
										OFFSET 5.35114 -0.85590 3.97906
										CHANNELS 3 Zrotation Xrotation Yrotation
										JOINT LeftHandThumb2
										{
											OFFSET 4.52789 0.00000 0.00000
											CHANNELS 3 Zrotation Xrotation Yrotation
											JOINT LeftHandThumb3
											{
												OFFSET 2.46977 0.00000 0.00000
												CHANNELS 3 Zrotation Xrotation Yrotation
												End site
												{
													OFFSET 0.00000 0.00000 0.00000
												}
											}
										}
									}
									JOINT LeftHandIndex1
									{
										OFFSET 14.26970 0.00000 2.88139
										CHANNELS 3 Zrotation Xrotation Yrotation
										JOINT LeftHandIndex2
										{
											OFFSET 5.48836 0.00000 0.00000
											CHANNELS 3 Zrotation Xrotation Yrotation
											JOINT LeftHandIndex3
											{
												OFFSET 3.01859 0.00000 0.00000
												CHANNELS 3 Zrotation Xrotation Yrotation
												End site
												{
													OFFSET 0.00000 0.00000 0.00000
												}
											}
										}
									}
									JOINT LeftHandMiddle1
									{
										OFFSET 14.26970 0.00000 -0.09147
										CHANNELS 3 Zrotation Xrotation Yrotation
										JOINT LeftHandMiddle2
										{
											OFFSET 6.17440 0.00000 0.00000
											CHANNELS 3 Zrotation Xrotation Yrotation
											JOINT LeftHandMiddle3
											{
												OFFSET 3.56744 0.00000 0.00000
												CHANNELS 3 Zrotation Xrotation Yrotation
												End site
												{
													OFFSET 0.00000 0.00000 0.00000
												}
											}
										}
									}
									JOINT LeftHandRing1
									{
										OFFSET 12.69180 0.00000 -3.06433
										CHANNELS 3 Zrotation Xrotation Yrotation
										JOINT LeftHandRing2
										{
											OFFSET 5.62556 0.00000 0.00000
											CHANNELS 3 Zrotation Xrotation Yrotation
											JOINT LeftHandRing3
											{
												OFFSET 3.56744 0.00000 0.00000
												CHANNELS 3 Zrotation Xrotation Yrotation
												End site
												{
													OFFSET 0.00000 0.00000 0.00000
												}
											}
										}
									}
									JOINT LeftHandPinky1
									{
										OFFSET 11.11390 0.00000 -6.03719
										CHANNELS 3 Zrotation Xrotation Yrotation
										JOINT LeftHandPinky2
										{
											OFFSET 4.52789 0.00000 0.00000
											CHANNELS 3 Zrotation Xrotation Yrotation
											JOINT LeftHandPinky3
											{
												OFFSET 2.46976 0.00000 0.00000
												CHANNELS 3 Zrotation Xrotation Yrotation
												End site
												{
													OFFSET 0.00000 0.00000 0.00000
												}
											}
										}
									}
								}
							}
						}
					}
					JOINT pCube4
					{
						OFFSET 0.00000 10.91090 1.10792
						CHANNELS 3 Zrotation Xrotation Yrotation
						End site
						{
							OFFSET 0.00000 0.00000 0.00000
						}
					}
				}
			}
		}
	}
	JOINT RightUpLeg
	{
		OFFSET -9.98441 0.00000 0.00000
		CHANNELS 3 Zrotation Xrotation Yrotation
		JOINT RightLeg
		{
			OFFSET 0.00000 -42.11790 0.00000
			CHANNELS 3 Zrotation Xrotation Yrotation
			JOINT RightFoot
			{
				OFFSET 0.00000 -45.00020 -0.00001
				CHANNELS 3 Zrotation Xrotation Yrotation
				JOINT RightForeFoot
				{
					OFFSET 0.00000 -3.74820 0.00000
					CHANNELS 3 Zrotation Xrotation Yrotation
					JOINT RightToeBase
					{
						OFFSET 0.00000 0.06325 14.43120
						CHANNELS 3 Zrotation Xrotation Yrotation
						End site
						{
							OFFSET 0.00000 0.00000 0.00000
						}
					}
				}
			}
		}
	}
	JOINT LeftUpLeg
	{
		OFFSET 9.98441 0.00000 0.00000
		CHANNELS 3 Zrotation Xrotation Yrotation
		JOINT LeftLeg
		{
			OFFSET 0.00000 -42.11800 0.00000
			CHANNELS 3 Zrotation Xrotation Yrotation
			JOINT LeftFoot
			{
				OFFSET 0.00000 -45.00070 0.00000
				CHANNELS 3 Zrotation Xrotation Yrotation
				JOINT LeftForeFoot
				{
					OFFSET 0.00000 -3.74824 0.00000
					CHANNELS 3 Zrotation Xrotation Yrotation
					JOINT LeftToeBase
					{
						OFFSET 0.00000 0.06325 14.43110
						CHANNELS 3 Zrotation Xrotation Yrotation
						End site
						{
							OFFSET 0.00000 0.00000 0.00000
						}
					}
				}
			}
		}
	}
}
MOTION
Frames: 4
Frame Time: 0.050000
-0.039223152603871526 0.015648657959929396 -0.01822092942539374 0.005486537923187742 -0.001235322385450233 -0.035604418467107005 -1.804092165355944 1.3476504072648074 -0.8863457691210703 -0.945455508082116 3.8467070528115244 0.3570167831788449 -1.154789409107692 -1.8305335020395084 -0.6281977368976134 0.031887172153351614 0.3646488587515746 -0.7361789563109846 -0.23232307388369144 14.140785684904161 -0.005422046098640017 -0.09670205248389149 0.29339911499186244 -2.1101772025857297 -0.014565025893595165 -14.7617873661287 -0.14483885434593985 -6.253137006465693 2.1215342909568564 -13.654307705624962 66.76970425204692 14.791834120727863 18.711441779001284 0.5709963668052749 -2.9572863517695143 93.74560476583734 8.929497322896426 -0.0921888369779168 -0.5419450016053023 4.5422005706662665 -0.14120164733160073 -1.590359880887401 -0.0018753106942558224 -0.006349829610428006 -56.21022414903543 -0.010932087802492522 0.044520483678364406 -56.21987771462181 -38.74705289190959 0.03300873900640695 0.009594639295931736 0.03819388406572214 0.005777251739106627 -0.018481733249784107 -0.02465531772822549 -0.006597195707410152 -0.0019691643397066264 -36.741620283057465 -0.0010669041703032693 -0.020554207065030732 -0.003002235746389234 0.04929803038670026 0.020595027757965546 -0.04514528596111857 -0.037284680562217 -0.02482827248011925 -19.78386774796889 -0.004679790286034583 -0.022598972962872218 -0.01889559815375142 0.013604575954244533 -0.044003293758633794 0.008917802521284665 0.012022527944823166 -0.038964018427263394 24.060389756068485 -0.047028093381198684 0.01568347812117997 28.897795527763694 0.02253809850006577 0.020304128393841107 28.870765798083724 0.008436347509969317 -0.0193799380951605 7.892661838934361 1.7162002846557272 12.70370690417837 -65.98368510664129 22.9799638068453 -19.76267180216888 8.122606015109945 -11.957629051998884 -91.0508775994294 -1.5846647871346804 0.903910974929572 -1.309263838055411 -0.4695010254292432 0.06668908206088173 -8.082153745473857 -0.022152898608927194 -0.021008226563743505 44.52595765431743 0.02119370078675309 -0.01162100017641753 44.56865354569591 12.436235916048673 0.028305864109900408 0.032762934500259834 0.017630397778242494 -0.029153710963355416 -0.03137542447799695 0.007811711643947721 0.0458567760820539 -0.027700238818322686 11.127908330541983 -0.014849059859239752 -0.02908753223819439 0.009265639277146688 0.03191329997381342 0.02881501775671294 0.001401508795180712 0.004981565718233561 -0.01829236991159671 4.769191195109619 -0.013549624782900027 0.036012187917809 0.023605834939668342 0.04327168168123924 -0.022693155940543126 0.009637415675451705 0.017419160203124992 -0.007301115504856048 -5.646514071035794 0.00280276268064092 0.035790600394336576 -6.744671452343625 0.01629684448020493 0.0103894222451468 -6.718457156329931 0.0014493640280439344 0.023388900419178613 -0.011576302736049275 0.010246823687322543 -0.021365425357246375 8.071143659273378 3.4571716286287693 -19.17316446828683 0.033951777735374306 10.3839718973455 0.02070895742011009 -5.617359118526583 -15.651821202640782 3.2216865318085124 0.011744992166259434 0.04444222087646659 -0.0440043562143795 0.038168140959144836 4.700002058719507 0.004410531066285263 12.436132734563316 -8.203940895090575 6.918061848058885 0.0478820322674419 46.402655172064684 -0.031249122319223256 -4.3709265813826255 -14.716783607512232 -3.8791470570525157 0.03672648409892707 -0.014363468968071993 0.027587269697155987 0.04965619015171631 -10.751087994199265 0.022059762500723834 
-0.006424674019141027 0.020607328462625783 -0.0391120778663204 0.009749356499479684 0.03849755748947814 -0.016463069430689353 -1.8968584014463097 1.3755364070292404 -0.8699749451638975 -1.0042237244326129 3.8047613070280715 0.39772705735101044 -1.150477710254396 -1.9055007339277705 -0.7283354093107678 -0.03727094968809653 0.37427428366103754 -0.7228709937383406 -0.2920688029893439 14.213968294642145 0.14665211199748798 -0.10367100420349916 0.39951326870769216 -1.7648275643708313 -0.08913021981739938 -14.657875012784206 -0.0826055496280617 -6.5049558807112895 2.179306060169093 -13.580753211123419 66.0002733901946 12.426006364868188 19.87799386309911 1.705109945090784 -2.452893646039365 93.01837629280737 8.992348892718969 -0.15585579762705593 -0.43511948577825577 4.517849151614064 -0.16787732499162947 -1.6226043741617444 -0.020375116661361006 -0.04364754968389412 -56.19646801081373 -0.012100399586768933 -0.008930458233670568 -56.243159344986445 -38.785187240627906 -0.020367143644342552 0.019030456088953915 0.016434389067045557 0.0017595880406729568 -0.040963027639866444 0.012512254431850346 0.03686338693134003 0.03025676156137047 -36.66219117959908 0.03743782615310319 0.03992594420222302 0.02782078993966782 -0.03422707753871842 0.006107933474969059 -0.03324704220692104 -0.04750131011966138 0.01693418748745333 -19.738575785418597 -0.04389966994788101 -0.006093702622018771 0.04897038419125361 0.03259569343136401 0.04152983415348385 -0.03226029903655957 0.034176065274773446 0.028971627627094782 24.037599824818397 0.023192001973447122 -0.029890069908166794 28.849449571524282 0.03932981862285099 0.045719904529231935 28.835291577374925 -0.03384060734637832 -0.010358539414276254 8.307259970844369 1.8760606691161563 12.678079866797706 -65.26868585462822 21.058330040310942 -22.069890604654066 5.690639821066461 -10.280419215098084 -90.27174756794062 -1.8851040299671122 1.1659295201714994 -1.4625884653146668 -0.46404715100488464 0.10479989478205276 -8.137088527740096 -0.024976285263058756 -0.032104567234514735 44.548075589290164 0.0463098163390118 -0.022743958351028028 44.59378556152984 12.460559195473804 -0.0013971113770697458 0.032953282025980205 0.04839686237355621 0.039777586926299735 -0.02148580965966621 0.020065057896071783 0.04137511926638043 -0.026690943358863052 11.089399999184431 -0.0372085281591014 0.01291212711923158 -0.038835841981696415 -0.049245489968409405 -0.0023147736753965802 0.01586594466108674 0.009791098852350579 -0.007030187622371476 4.769437204005452 -0.010836038932298847 -0.0029737904371320506 -0.03345502529632471 0.03186362979691689 0.006732049926823941 -0.003560395291827479 -0.03868824108403471 0.026900370562879 -5.622602255747923 0.026575770420437433 -0.009971691953070818 -6.722249037244467 0.022999341089380725 0.016276747741444893 -6.741504698726174 0.00795640771397162 -0.025985177326387693 -0.04992615765217839 0.021287850750455275 0.01210032198481706 8.04847120170959 3.502331312620645 -19.21869829356817 0.0003861321451521487 10.408484643382232 0.0042462033516365155 -5.634648406817621 -15.633919034422956 3.2199831711736175 0.005330737183535672 0.0014818707982724231 0.019329468569010706 -0.01582777000460199 4.655122138773964 -0.01671652199232027 12.430506948745816 -8.263243524134303 6.905496457386439 0.016105517814513626 46.367555152255704 0.0007475125849615251 -4.371123651180196 -14.739468447305724 -3.8089151503683976 0.02363180336182104 0.009943065497606504 0.03361294672145926 -0.03150332260233747 -10.730155240323999 0.02199827035183366 
-0.025143267878001238 -0.024500782790541676 0.0007233033661639272 0.03232737917467041 0.028865354695451623 0.014439727009041501 -2.013705214896853 1.4228577472257364 -0.7947667206432932 -0.9835214961476493 3.853457193051848 0.38601375304258956 -1.1794115276547241 -1.8939272510343264 -0.87096875950711 -0.07435751663497037 0.37892921245338523 -0.7774510238380739 -0.37526066749529563 14.415643278315175 0.18104408709994327 -0.08939744236470834 0.4318477650705231 -1.5672604622741033 -0.17405404436830885 -14.526587313424084 -0.08079509813281162 -6.753180485106233 2.284754686484337 -13.450940954676122 65.22717979796586 10.02876620757354 21.235457141638005 2.1386145006738455 -2.2247434664529937 92.65660295944491 9.21502390856172 -0.11974718875252771 -0.39227118343867745 4.553421334696014 -0.11900636106834984 -1.6107419925733442 0.0092900433683886 -0.03162417749192543 -56.2642403220755 -0.025729241057209702 -0.01325994897929702 -56.28026288064456 -38.77137269602282 -0.02754853821236249 -0.033448870901242836 0.0005517100903356644 -0.028291423449791492 -0.024895818712185994 -0.02259231886055374 0.01623689946184976 -0.019496347764728625 -36.70486540484715 0.007178680843058916 -0.01590457550581293 0.02894608790976694 0.04391053088733125 -0.04869852635633397 -0.009687953050464892 0.021003093346978842 0.0164058037721823 -19.776627257969327 -0.030397441854443753 0.01660064922418837 -0.018026542168996604 0.035629257314883374 -0.03304750066259905 0.007908849956700185 0.028469682465917898 0.0163416407894348 24.06996982637364 0.03911035759623185 -0.018235513505215347 28.849793040291825 -0.0484152818931815 0.02374982073216904 28.843695888300186 -0.019446797770007976 -0.03890957064106301 8.865661797949954 1.96109581116513 12.575284857790097 -64.30078614661394 19.534679015677778 -24.66360111624428 3.7665758792471116 -8.90449758618894 -89.95565159479095 -2.4509342423054363 1.4571915334940624 -1.4449358759079416 -0.45374865210956494 0.06030838351547983 -8.155772949663863 -0.022551674437159167 -0.001272430004670724 44.60898131234747 0.047288234162041025 -0.008438873792273342 44.58641291038102 12.458159553165428 -0.012248403362865862 0.022151780872113058 -0.021544610189390512 0.0038753294647543342 -0.048184990341360576 0.014348913746285415 0.021365010178248725 -0.0045748759062715855 11.13130535720586 -0.03248063032871609 0.008873213538318858 -0.040202275143740404 0.004345875486150736 -0.01004315183785309 0.015710796252391895 -0.03371587727660791 -0.006538292303511465 4.7956780727017465 0.04992132589344545 0.019417477401475276 -0.04609587045943652 0.03016566151330574 -0.020196892799537 0.02125753197993916 -0.0032750478563913785 -0.039827352032872805 -5.63985644215979 0.030013884147976316 0.04808255964831687 -6.6786849251281515 0.0124031803867545 -0.040751618684994384 -6.699021428482839 0.007550877417096266 -0.04579949763783476 -0.02324369621942722 -0.034019907597225375 0.04250898910031099 8.080457319763239 3.4621903711551125 -19.24766570707889 0.025207491589058946 10.380425653312344 -0.006994124331211781 -5.660373266596554 -15.63047801686675 3.1554120636656164 0.017641286505429253 0.04103753943547897 -0.0017061950589656832 -0.043553857157383837 4.665012523562062 0.013740123771843459 12.459303511320021 -8.190126584567905 6.894389231125851 -0.03263912326558466 46.36823462613828 0.030131998743404175 -4.3048382366552325 -14.784759780744185 -3.8256902051717963 0.016025701511824357 0.024734296635866217 0.0399043724750272 0.04391142672342276 -10.71493600559566 -0.013162053632692808 
-0.009378968048923386 -0.03815411503311936 0.02547471100642841 -0.025467624291879955 -0.019532802127741104 0.029246960164611008 -2.096967173823829 1.5054630612080548 -0.8391560735682096 -0.9635773701047415 3.8117148558427063 0.3767108837749211 -1.1702348468508066 -1.9422940643614652 -0.937272937261725 -0.16020714900432825 0.28936982954282264 -0.7730667352697729 -0.449549005993849 14.732604961603238 0.16465508760269637 -0.10111825543602179 0.5616556695437949 -1.255644904991975 -0.22127627156873633 -14.399607110402403 -0.1063466864098934 -7.204354661194635 2.4194837865447876 -13.418492387508582 64.37162907373957 7.696153225962972 22.870272064334017 1.6955261069495053 -2.143806419069987 92.9676897697765 8.897458038048047 -0.14625859512680306 -0.27795353243740284 4.572742623072456 -0.12689532907238946 -1.5912449472643655 0.045774033452137035 0.007987342681206813 -56.24751545317382 0.03823072348677408 0.030520391232488498 -56.242426537262496 -38.7720335063742 0.035424171802642346 -0.0087518816121604 0.016178281741944973 -0.03814021056272713 -0.03102094929400557 -0.0018372360491309824 -0.02803549954897232 -0.025771733790581675 -36.66563573794377 -0.04559949347744463 0.023251219530679143 0.015134898930705333 -0.03648307016218889 0.007222940399034018 0.015683766870758127 -1.7132641304801887e-05 0.037879003707644784 -19.7892401882648 0.004547287094657437 0.020046868994671733 -0.006948751701864459 -0.003696661906387713 0.03570553256977047 0.03146128747858182 -0.04940789084729022 -0.008853649299218839 24.058165100897945 0.049457880409247826 0.03266786180939149 28.91505373459107 -0.023507538894872854 -0.00750998147075777 28.84864980618218 0.017303496170118414 0.033415293581387354 9.411648629427624 2.0601103228153543 12.537338656922396 -63.24168993101637 18.020291100839714 -27.668324768701474 2.4297792472660067 -7.507814109672594 -90.3683059014401 -2.5399885069620964 1.5663894263608134 -1.5377749713572464 -0.49668011295155073 0.10297033411558207 -8.107998510530397 0.009484367403896044 0.0023608458552773458 44.581585288960085 0.035937211654511594 0.029649659999870327 44.56604042467233 12.443542517974855 -0.021335888069275902 -0.0054973891322465575 0.012249009353746669 0.0456532076547894 -0.015624072362768148 -0.013712361224768899 0.0016777360750364183 -0.033297844952631044 11.086270621038048 -0.011544257685425692 -0.03950522200908568 -0.028311886552586814 0.030813688758721387 -0.024671774701023302 0.0031454516927694556 -0.014531435101440272 -0.014799683359744182 4.783160265142585 0.012641296753322108 0.02989031060775939 -0.04004625149695001 -0.0269153302092039 -0.019942401103007764 -0.017708253367515133 -0.027976417586734807 0.03475092924714849 -5.629430391582278 0.018071120826988647 -0.03246424363878255 -6.7137209120493475 0.041418916482336435 0.018424902332575196 -6.748476374340277 0.010742075299877953 0.044376730342987426 0.013318723190813229 -0.04453572631493843 0.015817122826855386 8.022550646767643 3.536010590551869 -19.26171977867069 -0.04008378480462205 10.382656018395487 0.027441086240429447 -5.607450058093851 -15.668418183270589 3.194259841331873 0.005631087231568914 0.01696085322036841 -0.018983405455312567 -0.0009751232002301102 4.678096233136677 -0.030300755803040088 12.453594674162396 -8.249953034646818 6.852807630808331 -0.0021981386074682997 46.37460460411084 0.018166440057227035 -4.315789053891109 -14.78185012094699 -3.846511980085927 0.007427117743732538 0.003706728987400371 0.011297739308353696 0.02798622954749068 -10.72406662744467 -0.029415786687358343 
